<svg width="26" height="24" fill="none" xmlns="http://www.w3.org/2000/svg"><path d="M17.334 8.71H0v2.166h17.334A5.423 5.423 0 0022.75 5.46 5.423 5.423 0 0017.334.044a5.423 5.423 0 00-5.417 5.416h2.167a3.254 3.254 0 013.25-3.25 3.254 3.254 0 013.25 3.25 3.254 3.254 0 01-3.25 3.25zm3.25 4.334H0v2.166h20.584a3.254 3.254 0 013.25 3.25 3.254 3.254 0 01-3.25 3.25 3.254 3.254 0 01-3.25-3.25h-2.167a5.423 5.423 0 005.417 5.416A5.423 5.423 0 0026 18.46a5.423 5.423 0 00-5.416-5.416z" fill="#4AF6CD"/></svg>