<?xml version="1.0" encoding="utf-8"?><svg viewBox="0 0 2000 358.4" xmlns="http://www.w3.org/2000/svg" xmlns:xlink="http://www.w3.org/1999/xlink"><style>:root>svg{display:none}:root>svg:target{display:block}</style><svg fill="none" viewBox="0 0 40 25" id="icons-map--surf" xmlns="http://www.w3.org/2000/svg"><path d="m26.358 4.754.262-.236c.175-.155.345-.313.51-.469.162-.166.353-.276.521-.417.173-.135.34-.274.509-.399.35-.224.676-.472 1.007-.662.33-.184.638-.387.944-.525l.434-.224.409-.181c.52-.241.95-.388 1.247-.496.297-.096.457-.146.457-.146l.015-.005a.18.18 0 0 0 .116-.116.181.181 0 0 0-.116-.226s-.18-.057-.509-.117C32 .51 31.792.47 31.551.454c-.243-.02-.526-.05-.84-.04-.158.002-.325-.002-.5.008l-.547.05c-.386.027-.79.115-1.23.204-.224.037-.442.107-.67.177l-.706.22c-.462.194-.968.386-1.46.649-.242.136-.492.278-.743.429l-.38.228-.363.264c-.24.184-.487.37-.738.56-.26.183-.465.42-.703.638l-.701.685c-.212.251-.423.507-.63.771-.205.266-.428.53-.617.812-.181.287-.352.585-.53.882-.168.304-.356.595-.506.918-.146.329-.282.665-.42 1.002a35.75 35.75 0 0 0-.404 1.016l-.268.954-.27.96-.15.53-.118.436c-.042.147-.075.295-.122.44l-.158.423-.158.427c-.054.142-.124.274-.186.414a12.419 12.419 0 0 1-1.974 3.037 14.841 14.841 0 0 1-2.693 2.38c-.976.677-2.008 1.22-3.022 1.678a23.313 23.313 0 0 1-2.967 1.082 30.126 30.126 0 0 1-4.696.962 18.65 18.65 0 0 1-1.824.155.175.175 0 0 0-.17.151.174.174 0 0 0 .152.195h.004s.68.086 1.87.11c.595.014 1.32.008 2.152-.044a26.64 26.64 0 0 0 2.791-.306c2.031-.342 4.422-.962 6.775-2.242 1.174-.637 2.337-1.436 3.375-2.434a15.046 15.046 0 0 0 2.694-3.444c.092-.161.191-.317.276-.482l.244-.495c.165-.331.325-.665.457-1.006l.21-.51.052-.128.026-.063.007-.017-.017.051.012-.028.098-.23.395-.917.394-.909c.148-.253.285-.505.42-.756.134-.251.27-.499.392-.752.137-.247.302-.487.447-.73.144-.244.289-.485.424-.729.15-.233.314-.449.463-.673.157-.221.296-.45.448-.668l.485-.607.238-.301c.076-.103.154-.203.242-.288l.506-.535.239-.264z" fill="#4AF6CD"/><path fill-rule="evenodd" clip-rule="evenodd" d="M38.83 23.451c.636.284 1.007.422 1.007.422a.119.119 0 0 1 .072.153.125.125 0 0 1-.138.077s-.398-.077-1.08-.251a26.819 26.819 0 0 1-2.792-.893l-.275-.107a27.668 27.668 0 0 1-.61-.242l-.432-.19a38.979 38.979 0 0 1-.503-.22l-.37-.181-.602-.298-.74-.416-.253-.141-.318-.203-.682-.434a26.509 26.509 0 0 1-.704-.521 66.11 66.11 0 0 0-.28-.212l-.503-.44-.445-.391a69.294 69.294 0 0 0-.267-.281 34.278 34.278 0 0 1-.617-.657l-.404-.516-.201-.26-.103-.13-.025-.031-.014-.017-.002-.005s.017.031-.03-.05l-.006-.008-.041-.063-.326-.5c-.033-.054-.067-.104-.1-.154a2.46 2.46 0 0 1-.224-.382l-.153-.306c-.161-.317-.324-.637-.41-.964a33.435 33.435 0 0 0-.044-.13c-.056-.171-.113-.341-.156-.514l-.046-.285-.062-.389a4.58 4.58 0 0 0-.016-.13 2.792 2.792 0 0 1-.022-.206l.003-.342.006-.194c.003-.161.007-.321.032-.48.028-.174.064-.343.1-.511l.031-.15c.026-.144.082-.284.138-.42.028-.07.055-.137.079-.205l.12-.299c.028-.064.065-.126.102-.187a10.38 10.38 0 0 0 .154-.256c.076-.126.15-.25.235-.363l.032-.038c.256-.3.5-.586.798-.798.216-.196.468-.329.705-.454.067-.036.133-.07.197-.106.113-.05.228-.089.34-.126A8.955 8.955 0 0 0 29.148 8c.132-.044.259-.087.393-.1a3.723 3.723 0 0 1 1.465-.006c.196.042.364.088.507.13a6.638 6.638 0 0 1 .623.304c.06.035.08.111.045.171a.122.122 0 0 1-.09.062l-.017.003-.29.043c-.076.014-.164.024-.264.036l-.066.007a8.704 8.704 0 0 0-.133.039c-.091.026-.189.055-.29.08a1.271 1.271 0 0 0-.328.12 3.441 3.441 0 0 1-.156.069 1.48 1.48 0 0 0-.338.176 3.415 3.415 0 0 1-.17.103c-.117.07-.226.163-.336.256-.053.045-.106.09-.16.133-.05.059-.101.114-.154.168-.1.106-.2.21-.278.344-.276.36-.466.813-.572 1.303a1.49 1.49 0 0 1-.03.136c-.02.078-.04.155-.038.24l-.007.09a4.494 4.494 0 0 1-.028.306c-.007.073-.003.15.002.227.003.063.007.126.004.188v.053c0 .052.001.105-.001.158.002.05.01.1.018.151a2.986 2.986 0 0 1 .033.3l.02.214c.037.151.07.306.1.462.03.21.088.399.147.591.032.107.066.214.094.327.017.102.077.233.138.364l.07.154.246.544.03.068.003.005.003.007.069.116.14.23.28.465.378.495.292.38.758.819c.272.254.543.507.813.756l.28.234.563.466.859.637c.29.197.577.39.854.576l.833.519c.173.103.344.2.512.296a29.384 29.384 0 0 0 1.72.908c.436.21.818.387 1.136.528zm-9.51-7.466c0-.001 0-.002-.002-.002l.009.014.003.004a.252.252 0 0 1-.01-.017z" fill="#4AF6CD"/><path d="M31.488 2.852a7.76 7.76 0 0 0-1.275.366.09.09 0 0 0-.057.082.086.086 0 0 0 .087.088c.001 0 .517.003 1.276.091.38.037.815.113 1.273.193.458.103.941.196 1.405.342.116.04.233.072.346.115l.33.146c.22.095.426.2.634.271.211.063.416.118.617.155l.583.093c.185.028.364.038.527.046.158.017.304.027.429.027.25.005.417-.013.417-.013l.007-.002.023-.005a.11.11 0 0 0 .065-.14s-.055-.15-.19-.374a3.516 3.516 0 0 0-.267-.385 3.618 3.618 0 0 0-.416-.416 3.753 3.753 0 0 0-.26-.213c-.096-.06-.192-.128-.298-.186a2.602 2.602 0 0 0-.69-.31 3.201 3.201 0 0 0-.796-.129c-.275-.024-.55-.036-.825-.05-.273-.024-.545-.021-.811-.026-.266-.007-.529.02-.78.033-.252.03-.492.043-.72.085a16.01 16.01 0 0 0-.634.116zm5.622 6.151c.166.074.295.157.425.217.238.133.404.213.404.213l.01.005c.013.007.028.01.045.01a.1.1 0 0 0 .096-.101l-.003-.128c-.005-.084-.01-.208-.044-.36-.036-.147-.08-.335-.172-.528a3.073 3.073 0 0 0-.358-.625 6.06 6.06 0 0 0-.257-.318c-.099-.098-.197-.207-.308-.304a3.58 3.58 0 0 0-.753-.525 4.275 4.275 0 0 0-.904-.326c-.314-.085-.632-.151-.944-.224a12.705 12.705 0 0 0-1.837-.293 15.37 15.37 0 0 0-1.6-.06c-.932.012-1.545.105-1.545.105a.09.09 0 0 0-.075.07.088.088 0 0 0 .07.103s.6.115 1.476.346c.437.113.94.26 1.47.435.264.085.531.188.804.284.27.1.54.21.803.328.263.12.517.256.751.406.238.147.459.299.682.422.223.121.437.227.651.32l.595.278c.19.09.364.175.517.25zm-.928 2.086a2.324 2.324 0 0 0-.253-.386 1.62 1.62 0 0 0-.364-.34c-.14-.1-.31-.16-.477-.225-.17-.056-.34-.111-.505-.173a7.092 7.092 0 0 0-.981-.274 7.55 7.55 0 0 0-.866-.128c-.505-.052-.848-.03-.848-.03a.076.076 0 0 0-.061.042.072.072 0 0 0 .034.096s.301.141.734.367c.214.118.458.26.714.414l.384.243c.132.08.256.173.383.26.121.092.237.194.344.299.1.11.207.207.31.29.102.083.225.138.335.195.108.058.226.1.334.143.103.045.21.081.312.111.103.03.185.065.266.087.16.048.276.068.276.068l.005.001a.096.096 0 0 0 .111-.076s.02-.11.009-.29a1.541 1.541 0 0 0-.05-.32 2.534 2.534 0 0 0-.146-.374z" fill="#4AF6CD"/></svg><svg fill="none" viewBox="0 0 19 25" id="icons-map--water" xmlns="http://www.w3.org/2000/svg"><path d="M5.248 15.744a2.702 2.702 0 0 1-2.7-2.7.575.575 0 0 1 1.15 0c0 .856.696 1.553 1.552 1.553.855 0 1.553-.697 1.553-1.552a.575.575 0 0 1 1.148 0 2.708 2.708 0 0 1-2.703 2.699z" fill="#4AF6CD" stroke="#4AF6CD" stroke-width=".5"/><path d="M9.5 15.744a2.702 2.702 0 0 1-2.7-2.7.575.575 0 0 1 1.15 0c0 .856.696 1.553 1.552 1.553.855 0 1.553-.697 1.553-1.552a.575.575 0 0 1 1.148 0A2.708 2.708 0 0 1 9.5 15.744z" fill="#4AF6CD" stroke="#4AF6CD" stroke-width=".5"/><path d="M13.752 15.744a2.702 2.702 0 0 1-2.7-2.7.575.575 0 0 1 1.15 0c0 .856.696 1.553 1.552 1.553.855 0 1.553-.697 1.553-1.552a.575.575 0 0 1 1.148 0 2.708 2.708 0 0 1-2.703 2.699z" fill="#4AF6CD" stroke="#4AF6CD" stroke-width=".5"/><path fill-rule="evenodd" clip-rule="evenodd" d="M.422 15.069c0 5.005 4.072 9.077 9.078 9.077 5.006 0 9.078-4.071 9.08-9.077C18.58 8.237 10.237.795 9.881.48a.573.573 0 0 0-.74-.016C8.784.752.422 7.592.422 15.069zM9.484 1.678zm0 0c-1.62 1.42-7.916 7.324-7.916 13.39 0 4.373 3.557 7.93 7.93 7.93 4.373 0 7.93-3.557 7.93-7.93.001-5.543-6.338-11.876-7.944-13.39z" fill="#4AF6CD"/><path d="m9.5 24.146.112-.223-.053-.026H9.5v.25zm0 0-.112.224.053.027h.06v-.25zm9.08-9.077h.25-.25zM9.881.48l-.166.187.166-.187zm-.74-.016.156.195h.001L9.141.464zm.343 1.212.165.189.502-.439h-.667v.25zm0 0v-.25h-.629l.457.432.172-.182zm7.943 13.391h-.25.25zM9.5 23.897c-4.868 0-8.828-3.96-8.828-8.828h-.5c0 5.143 4.184 9.327 9.328 9.327v-.5zm.113.026-.225.447.225-.447zm8.717-8.854c-.002 4.867-3.962 8.828-8.83 8.828v.5c5.144 0 9.328-4.184 9.33-9.328h-.5zM9.716.668c.172.152 2.334 2.08 4.45 4.815 2.125 2.747 4.164 6.258 4.164 9.586h.5c0-3.505-2.132-7.13-4.268-9.891C12.418 2.406 10.23.455 10.047.293l-.331.375zM9.298.659c.123-.1.3-.095.417.009l.332-.374A.823.823 0 0 0 8.984.27l.314.388zM.672 15.07c0-3.652 2.046-7.175 4.171-9.843C6.963 2.566 9.126.797 9.297.66L8.984.27c-.186.15-2.381 1.944-4.532 4.645C2.306 7.608.172 11.244.172 15.069h.5zM9.32 1.489l.328.377-.328-.377zm.164.438v-.5.5zm.172-.431-.344.363.344-.363zm-.337-.006c-.816.716-2.81 2.56-4.601 4.992-1.787 2.426-3.4 5.472-3.4 8.586h.5c0-2.953 1.536-5.892 3.302-8.29C6.882 4.389 8.846 2.57 9.65 1.867l-.33-.376zm-8 13.578c0 4.511 3.668 8.18 8.179 8.18v-.5c-4.235 0-7.68-3.445-7.68-7.68h-.5zm8.179 8.18c4.51 0 8.18-3.67 8.18-8.18h-.5c0 4.235-3.445 7.68-7.68 7.68v.5zm8.18-8.18c0-2.854-1.625-5.879-3.417-8.353-1.798-2.483-3.797-4.457-4.605-5.22l-.343.365c.797.751 2.77 2.701 4.543 5.149 1.78 2.457 3.322 5.37 3.321 8.059h.5z" fill="#4AF6CD"/></svg><svg fill="none" viewBox="0 0 26 24" id="icons-map--wind" xmlns="http://www.w3.org/2000/svg"><path d="M17.334 8.71H0v2.166h17.334A5.423 5.423 0 0 0 22.75 5.46 5.423 5.423 0 0 0 17.334.044a5.423 5.423 0 0 0-5.417 5.416h2.167a3.254 3.254 0 0 1 3.25-3.25 3.254 3.254 0 0 1 3.25 3.25 3.254 3.254 0 0 1-3.25 3.25zm3.25 4.334H0v2.166h20.584a3.254 3.254 0 0 1 3.25 3.25 3.254 3.254 0 0 1-3.25 3.25 3.254 3.254 0 0 1-3.25-3.25h-2.167a5.423 5.423 0 0 0 5.417 5.416A5.423 5.423 0 0 0 26 18.46a5.423 5.423 0 0 0-5.416-5.416z" fill="#4AF6CD"/></svg><svg viewBox="0.996 1 498.004 87.678" id="sony-logo-1" xmlns="http://www.w3.org/2000/svg"><path d="M178.416 88.677c-18.04 0-34.786-5.41-45.964-15.443-8.445-7.58-12.503-17.876-12.503-28.473 0-10.468 4.233-20.835 12.502-28.375C142.832 6.925 161.16 1 178.416 1c19.096 0 34.38 4.81 46.064 15.412 8.313 7.544 12.332 17.865 12.332 28.35 0 10.163-4.265 20.986-12.332 28.472-10.88 10.098-27.978 15.443-46.064 15.443V77.113c9.575 0 18.457-3.306 24.66-9.478 6.16-6.13 9.03-13.665 9.03-22.874 0-8.822-3.096-17.07-9.03-22.92-6.12-6.028-15.214-9.42-24.66-9.42-9.475 0-18.575 3.357-24.7 9.42-5.902 5.848-9.006 14.12-9.006 22.92 0 8.773 3.14 17.04 9.006 22.875 6.13 6.098 15.198 9.478 24.7 9.478v11.564zM46.562 1.042c-9.65 0-20.613 1.805-29.928 5.965C8.037 10.843 1 17.047 1 27.332.996 36.595 6.883 42.02 6.723 41.87c2.504 2.305 6.535 6.23 17.074 8.535 4.71 1.03 14.78 2.612 24.808 3.66 9.954 1.05 19.75 2.048 23.74 3.058 3.17.807 8.495 1.906 8.495 7.88 0 5.95-5.61 7.766-6.585 8.16-.974.385-7.704 3.473-19.802 3.473-8.932 0-19.67-2.686-23.584-4.086-4.512-1.606-9.245-3.73-13.66-9.123-1.098-1.337-2.83-5.014-2.83-8.655H3.43v30.68H15.6v-4.145c0-.472.59-2.413 2.633-1.49 2.542 1.155 10.004 4.126 17.806 5.755 6.397 1.338 10.522 2.297 18.475 2.297 12.976 0 19.947-2.114 24.766-3.49 4.54-1.3 10.15-3.634 14.707-7.268 2.468-1.965 7.88-7.002 7.88-16.145 0-8.776-4.71-14.223-6.367-15.88-2.257-2.258-5.014-4.008-7.887-5.357-2.503-1.178-6.453-2.593-9.685-3.384-6.273-1.54-20.457-3.44-27.24-4.15-7.113-.743-19.452-1.765-24.38-3.29-1.494-.463-4.54-1.914-4.54-5.45 0-2.515 1.393-4.647 4.146-6.37 4.37-2.738 13.197-4.44 22.398-4.44 10.878-.04 20.09 2.447 25.95 5.067 1.993.89 4.325 2.168 6.177 3.68 2.09 1.704 5.024 5.245 6.085 10.184h9.83V4.87H85.378v3.104c0 1.002-1.035 2.304-2.992 1.228-4.912-2.577-18.8-8.137-35.826-8.16m240.536 4.853 53.542 48.32-.55-32.533c-.054-4.266-.84-6.047-5.454-6.047h-10.067V5.903h45.78v9.732h-9.82c-4.706 0-5.003 1.505-5.06 6.047l.83 62.163h-15.678l-61.67-55.04.013 39.062c.054 4.246.253 6.246 4.628 6.246h10.995v9.728h-44.96v-9.727h10.51c3.926 0 3.77-3.743 3.77-6.468V22.052c0-2.943-.413-6.41-6.577-6.41H248.8V5.895zm135.564 68.2c.43 0 2.34-.055 2.71-.168a3.358 3.358 0 0 0 2.106-1.87c.14-.33.21-1.79.21-2.107l.008-15.38c0-.37-.027-.53-.655-1.354-.69-.9-28.045-31.9-29.297-33.265-1.555-1.695-4.285-4.315-8.433-4.315h-9.513V5.9h53.687v9.724h-6.472c-1.497 0-2.492 1.42-1.213 2.998 0 0 18.063 21.607 18.234 21.833.168.23.312.285.542.075.226-.215 18.516-21.71 18.66-21.88.87-1.042.28-3.015-1.595-3.015H455V5.9h44v9.735h-9.83c-3.566 0-5.017.66-7.7 3.693-1.227 1.388-28.874 32.945-29.626 33.8-.394.447-.36 1.07-.36 1.44v15.378c0 .312.07 1.774.21 2.102a3.349 3.349 0 0 0 2.11 1.87c.37.114 2.254.17 2.683.17h10.055v9.734h-53.41v-9.735l9.53.008z"/></svg><svg viewBox="0 0 278.7 36.3" id="tesla-9" xmlns="http://www.w3.org/2000/svg"><path d="M238.1 14.4v21.9h7V21.7h25.6v14.6h7V14.4h-39.6m6.2-7.1h27c3.8-.7 6.5-4.1 7.3-7.3H237c.8 3.2 3.6 6.5 7.3 7.3m-27.5 29c3.5-1.5 5.4-4.1 6.2-7.1h-31.5V.1h-7.1v36.2h32.4M131.9 7.2h25c3.8-1.1 6.9-4 7.7-7.1H125v21.4h32.4V29H132c-4 1.1-7.4 3.8-9.1 7.3h41.5V14.4H132l-.1-7.2m-61.6.1h27c3.8-.7 6.6-4.1 7.3-7.3H62.9c.8 3.2 3.6 6.5 7.4 7.3m0 14.3h27c3.8-.7 6.6-4.1 7.3-7.3H62.9c.8 3.2 3.6 6.5 7.4 7.3m0 14.7h27c3.8-.7 6.6-4.1 7.3-7.3H62.9c.8 3.2 3.6 6.6 7.4 7.3M0 .1c.8 3.2 3.6 6.4 7.3 7.2h11.4l.6.2v28.7h7.1V7.5l.6-.2h11.4c3.8-1 6.5-4 7.3-7.2V0L0 .1" fill="#5e5e5e"/></svg></svg>